<svg xmlns="http://www.w3.org/2000/svg" viewBox="0 0 44 84">
  <defs>
    <style>
      .cls-1 {
        fill: #999;
        fill-rule: evenodd;
      }
    </style>
  </defs>
  <path id="img-hardware-app-gray.svg" class="cls-1" d="M581.376,6985.99H544.669a3.655,3.655,0,0,0-3.666,3.62v76.76a3.642,3.642,0,0,0,3.666,3.62h36.682a3.63,3.63,0,0,0,3.657-3.61v-76.81A3.612,3.612,0,0,0,581.376,6985.99Zm-24.991,3.22H569.6a2.431,2.431,0,0,1,0,4.86H556.385A2.431,2.431,0,0,1,556.385,6989.21Zm25.357,69.31a2.051,2.051,0,0,1-2.226,1.76H546.491a2.042,2.042,0,0,1-2.232-1.76v-59.46a2.035,2.035,0,0,1,2.232-1.77h33.025a2.044,2.044,0,0,1,2.226,1.77v59.46Z" transform="translate(-541 -6986)"/>
</svg>
