<svg xmlns="http://www.w3.org/2000/svg" width="75" height="75" viewBox="0 0 75 75">
  <defs>
    <style>
      .cls-1 {
        fill: #ce181e;
        fill-rule: evenodd;
      }
    </style>
  </defs>
  <path id="シェイプ_1" data-name="シェイプ 1" class="cls-1" d="M414,4292.5a7.5,7.5,0,0,0-7.5-7.5h-60a7.5,7.5,0,0,0-7.5,7.5v29.49h75V4292.5Zm-19.015,20.83a1.668,1.668,0,0,1-1.646,1.68H359.661a1.668,1.668,0,0,1-1.646-1.68v-17.65a1.668,1.668,0,0,1,1.646-1.68h33.678a1.668,1.668,0,0,1,1.646,1.68v17.65ZM339,4352.5a7.505,7.505,0,0,0,7.5,7.5h60.005a7.5,7.5,0,0,0,7.5-7.5v-27.47H339v27.47Zm66.846-17.44a2.15,2.15,0,1,1-2.154,2.15,2.148,2.148,0,0,1,2.154-2.15m-4.353-4.35a2.15,2.15,0,1,1-2.151,2.15,2.147,2.147,0,0,1,2.151-2.15m0,8.7a2.15,2.15,0,1,1-2.151,2.15,2.147,2.147,0,0,1,2.151-2.15m-4.349-4.35a2.15,2.15,0,1,1-2.151,2.15,2.148,2.148,0,0,1,2.151-2.15m-34.2-1.49a1.607,1.607,0,0,1,1.643-1.57h23.753a1.608,1.608,0,0,1,1.646,1.57v16.84a1.608,1.608,0,0,1-1.646,1.57H364.586a1.607,1.607,0,0,1-1.643-1.57v-16.84Zm-11.687-1.36a5,5,0,1,1-5,5,5,5,0,0,1,5-5" transform="translate(-339 -4285)"/>
</svg>
