<svg xmlns="http://www.w3.org/2000/svg" width="36" height="36" viewBox="0 0 36 36">
  <defs>
    <style>
      .cls-1 {
        fill: #e60012;
        fill-rule: evenodd;
      }
    </style>
  </defs>
  <path id="right-stroke-middle-white.svg" class="cls-1" d="M1282.99,2039.99a18.015,18.015,0,1,0,18,18.01A18.006,18.006,0,0,0,1282.99,2039.99Zm4.61,18.98s-4.74,5.12-5.24,5.63a1.392,1.392,0,0,1-1.94,0,1.351,1.351,0,0,1,0-1.96l4.33-4.65-4.33-4.66a1.34,1.34,0,0,1,0-1.95,1.392,1.392,0,0,1,1.94,0c0.5,0.5,5.24,5.63,5.24,5.63A1.4,1.4,0,0,1,1287.6,2058.97Z" transform="translate(-1265 -2040)"/>
</svg>
